<?xml version="1.0" standalone="no"?>
<!DOCTYPE svg PUBLIC "-//W3C//DTD SVG 20010904//EN"
 "http://www.w3.org/TR/2001/REC-SVG-20010904/DTD/svg10.dtd">
<svg version="1.0" xmlns="http://www.w3.org/2000/svg"
 width="398.000000pt" height="398.000000pt" viewBox="0 0 398.000000 398.000000"
 preserveAspectRatio="xMidYMid meet">
<metadata>
Created by potrace 1.14, written by Peter Selinger 2001-2017
</metadata>
<g transform="translate(0.000000,398.000000) scale(0.100000,-0.100000)"
fill="#000000" stroke="none">
<path d="M1910 3274 c-19 -8 -52 -31 -72 -51 l-38 -37 -22 21 c-99 90 -244 61
-308 -62 l-26 -50 -44 27 c-87 55 -149 28 -205 -86 -18 -37 -33 -53 -64 -67
-55 -24 -81 -69 -81 -141 0 -53 -2 -57 -34 -76 -52 -31 -81 -100 -82 -197 -1
-70 -6 -89 -38 -156 -45 -94 -56 -159 -45 -274 6 -70 5 -103 -7 -150 -19 -71
-15 -165 8 -215 9 -19 18 -54 21 -78 6 -50 27 -77 71 -92 37 -12 47 -26 92
-133 18 -44 45 -92 58 -106 21 -23 24 -37 28 -126 3 -86 8 -109 35 -166 57
-122 214 -261 397 -352 l61 -30 -85 -29 c-173 -60 -368 -121 -454 -142 -50
-12 -91 -27 -93 -32 -9 -27 309 -181 474 -229 127 -37 123 -38 123 48 1 59 3
68 12 52 21 -38 86 -111 111 -124 23 -12 27 -9 82 48 32 34 61 58 65 54 4 -5
13 -24 20 -43 8 -19 24 -51 36 -71 21 -34 26 -36 70 -35 l47 1 27 60 c15 33
31 69 34 79 6 17 14 13 64 -37 32 -31 64 -57 71 -57 12 0 103 87 98 93 -5 6
31 46 36 40 4 -3 7 -35 7 -70 0 -34 4 -63 8 -63 26 0 198 57 288 96 102 43
279 138 289 155 6 8 -3 11 -174 54 -58 14 -168 50 -245 80 -78 30 -154 59
-171 65 l-29 11 74 41 c157 85 300 209 353 307 36 65 57 152 57 232 0 55 4 69
22 85 20 18 78 132 78 155 0 6 9 23 19 38 11 15 22 38 26 52 3 13 21 34 40 46
56 37 79 93 80 193 1 61 8 103 24 150 47 133 35 254 -35 345 l-32 42 15 74
c23 121 4 205 -69 300 -25 32 -37 60 -42 98 -14 104 -56 151 -135 151 -30 0
-41 4 -41 15 0 8 -13 29 -28 46 -26 29 -35 32 -87 33 -56 1 -59 3 -78 36 -10
19 -26 40 -35 47 -21 15 -69 16 -110 2 -29 -10 -33 -8 -62 25 -39 44 -89 60
-145 45 -22 -6 -45 -15 -52 -21 -8 -7 -22 -2 -46 16 -72 55 -141 69 -207 40z
m537 -993 c33 -17 67 -13 95 9 l25 19 18 -47 c21 -56 61 -129 87 -157 14 -15
17 -27 11 -50 -16 -61 -8 -169 16 -219 31 -63 48 -185 56 -406 8 -205 0 -273
-40 -356 -45 -92 -193 -226 -330 -299 -186 -99 -333 -133 -496 -115 -203 23
-424 133 -581 290 -106 106 -130 159 -136 300 -7 163 13 401 38 442 30 51 52
163 52 263 -1 50 4 115 10 147 9 48 15 59 46 80 20 12 46 39 57 59 l20 35 45
-13 c59 -17 100 -8 148 33 l40 34 20 -34 c23 -38 74 -59 122 -50 24 5 30 1 46
-32 29 -58 63 -77 137 -78 75 -1 112 19 125 67 8 30 12 32 58 37 60 6 111 35
133 75 12 22 22 29 38 27 12 -2 30 1 40 7 15 9 24 4 48 -23 17 -19 40 -39 52
-45z m-642 -1666 c89 -19 221 -19 310 0 98 21 95 22 95 -34 l0 -50 -62 -31
c-35 -16 -90 -35 -124 -42 -55 -10 -68 -8 -148 15 -131 39 -150 53 -154 110
-2 26 1 47 5 47 4 0 40 -7 78 -15z m548 -112 c6 -48 3 -55 -40 -120 -25 -37
-56 -80 -70 -95 l-25 -26 -80 79 c-44 44 -79 81 -77 83 2 2 25 10 51 19 58 19
141 73 188 122 34 35 35 35 41 13 3 -13 8 -46 12 -75z m-693 35 c55 -44 118
-76 188 -97 l53 -16 -51 -39 c-28 -21 -69 -59 -90 -84 l-40 -45 -26 24 c-36
34 -77 96 -98 149 -20 51 -14 168 8 152 6 -5 31 -24 56 -44z"/>
<path d="M1449 1993 c-25 -15 -104 -122 -96 -129 2 -2 22 6 45 17 80 40 274
56 415 34 21 -4 27 -1 27 14 0 30 -23 41 -122 62 -117 24 -233 25 -269 2z"/>
<path d="M2225 1993 c-96 -17 -129 -32 -133 -58 -3 -19 2 -20 140 -17 152 4
238 -7 299 -39 20 -10 39 -16 42 -13 11 12 -78 123 -107 134 -39 14 -144 11
-241 -7z"/>
<path d="M1454 1776 c-95 -30 -124 -63 -124 -142 0 -52 17 -89 56 -123 95 -83
303 -94 413 -23 34 22 45 36 57 79 28 97 -11 176 -103 207 -57 20 -239 21
-299 2z m130 -68 c14 -23 -3 -52 -32 -56 -28 -4 -55 34 -41 60 13 24 57 21 73
-4z m216 -35 c54 -61 34 -135 -47 -174 -41 -21 -63 -24 -148 -24 -114 1 -158
17 -213 80 -42 47 -41 78 2 121 48 48 65 45 59 -8 -5 -54 21 -104 68 -130 51
-29 141 -20 180 18 38 36 55 92 41 132 -9 27 -8 29 9 25 10 -3 32 -21 49 -40z"/>
<path d="M2179 1775 c-169 -54 -152 -275 26 -320 116 -29 234 -14 313 39 56
39 82 85 82 148 0 57 -30 98 -92 123 -59 25 -264 31 -329 10z m125 -51 c20 -8
21 -48 1 -64 -8 -7 -25 -10 -40 -6 -19 5 -25 13 -25 35 0 15 3 31 7 34 8 9 36
9 57 1z m-118 -45 c-9 -34 -8 -46 9 -77 53 -98 177 -111 255 -27 20 22 25 36
24 81 0 30 2 54 5 54 16 0 71 -42 81 -60 30 -56 -37 -137 -137 -166 -42 -12
-77 -15 -135 -11 -104 8 -153 34 -179 93 -19 41 -19 46 -4 77 13 28 68 77 86
77 3 0 1 -18 -5 -41z"/>
<path d="M2033 1523 c3 -10 10 -39 17 -66 7 -26 17 -50 22 -54 6 -3 8 3 5 13
-3 11 -8 35 -12 54 -10 56 -16 70 -26 70 -6 0 -8 -8 -6 -17z"/>
<path d="M1830 1312 c0 -17 25 -42 51 -51 40 -14 129 -14 165 -1 27 11 55 40
49 51 -2 3 -33 1 -69 -5 -43 -6 -89 -6 -131 0 -36 6 -65 8 -65 6z"/>
<path d="M1565 1153 c-46 -12 -66 -35 -63 -71 2 -20 9 -37 16 -40 9 -3 12 5
10 24 -4 35 -5 35 126 0 233 -62 441 -57 666 13 80 25 80 25 80 1 0 -11 5 -20
10 -20 6 0 10 13 10 30 0 36 -27 56 -89 66 -35 6 -43 4 -39 -7 3 -8 20 -16 39
-19 l34 -5 -30 -12 c-16 -7 -70 -23 -120 -35 -128 -32 -356 -32 -504 1 -57 12
-114 27 -125 34 -20 11 -19 12 13 17 43 6 55 30 14 29 -15 -1 -37 -4 -48 -6z"/>
<path d="M1862 959 c2 -8 23 -21 46 -29 34 -12 51 -12 99 -2 95 20 88 32 -19
32 -53 0 -104 3 -114 7 -12 4 -15 2 -12 -8z"/>
</g>
</svg>
